<mxfile host="app.diagrams.net" modified="2023-12-26T14:53:16.384Z" agent="Mozilla/5.0 (Windows NT 10.0; Win64; x64) AppleWebKit/537.36 (KHTML, like Gecko) Chrome/120.0.0.0 Safari/537.36" etag="WWNsZmpylC4G06MMyJ-Q" version="22.1.11" type="device">
  <diagram name="main" id="diJvZJ9ZoS2uBefCGKdB">
    <mxGraphModel dx="3187" dy="1733" grid="1" gridSize="10" guides="1" tooltips="1" connect="1" arrows="1" fold="1" page="1" pageScale="1" pageWidth="1654" pageHeight="1169" math="0" shadow="0">
      <root>
        <mxCell id="0" />
        <mxCell id="1" parent="0" />
        <mxCell id="_G7vTM6VIxuFmPQsXjSw-32" style="edgeStyle=orthogonalEdgeStyle;rounded=0;orthogonalLoop=1;jettySize=auto;html=1;exitX=1;exitY=0.25;exitDx=0;exitDy=0;entryX=0;entryY=0.25;entryDx=0;entryDy=0;" parent="1" source="_G7vTM6VIxuFmPQsXjSw-1" target="_G7vTM6VIxuFmPQsXjSw-2" edge="1">
          <mxGeometry relative="1" as="geometry" />
        </mxCell>
        <mxCell id="_G7vTM6VIxuFmPQsXjSw-33" value="Запрос ассемблирования проекта" style="edgeLabel;html=1;align=center;verticalAlign=middle;resizable=0;points=[];" parent="_G7vTM6VIxuFmPQsXjSw-32" vertex="1" connectable="0">
          <mxGeometry x="-0.6449" y="-2" relative="1" as="geometry">
            <mxPoint x="90" y="-12" as="offset" />
          </mxGeometry>
        </mxCell>
        <mxCell id="_G7vTM6VIxuFmPQsXjSw-34" style="edgeStyle=orthogonalEdgeStyle;rounded=0;orthogonalLoop=1;jettySize=auto;html=1;exitX=0.75;exitY=1;exitDx=0;exitDy=0;entryX=0.75;entryY=0;entryDx=0;entryDy=0;" parent="1" source="_G7vTM6VIxuFmPQsXjSw-1" target="_G7vTM6VIxuFmPQsXjSw-3" edge="1">
          <mxGeometry relative="1" as="geometry" />
        </mxCell>
        <mxCell id="_G7vTM6VIxuFmPQsXjSw-35" value="Загрузка программы,&lt;br&gt;Запрос исполнения программы" style="edgeLabel;html=1;align=center;verticalAlign=middle;resizable=0;points=[];" parent="_G7vTM6VIxuFmPQsXjSw-34" vertex="1" connectable="0">
          <mxGeometry x="-0.1998" y="2" relative="1" as="geometry">
            <mxPoint x="88" y="-48" as="offset" />
          </mxGeometry>
        </mxCell>
        <mxCell id="_G7vTM6VIxuFmPQsXjSw-46" style="edgeStyle=orthogonalEdgeStyle;rounded=0;orthogonalLoop=1;jettySize=auto;html=1;exitX=0;exitY=0.75;exitDx=0;exitDy=0;" parent="1" source="_G7vTM6VIxuFmPQsXjSw-1" edge="1">
          <mxGeometry relative="1" as="geometry">
            <mxPoint x="80" y="280.13043478260875" as="targetPoint" />
          </mxGeometry>
        </mxCell>
        <mxCell id="_G7vTM6VIxuFmPQsXjSw-47" value="Сообщения" style="edgeLabel;html=1;align=center;verticalAlign=middle;resizable=0;points=[];" parent="_G7vTM6VIxuFmPQsXjSw-46" vertex="1" connectable="0">
          <mxGeometry x="0.602" y="-1" relative="1" as="geometry">
            <mxPoint x="46" y="-9" as="offset" />
          </mxGeometry>
        </mxCell>
        <mxCell id="wsUYUHAe7eMuuSLfLsTf-23" style="edgeStyle=orthogonalEdgeStyle;rounded=0;orthogonalLoop=1;jettySize=auto;html=1;exitX=0.25;exitY=0;exitDx=0;exitDy=0;entryX=0;entryY=0.25;entryDx=0;entryDy=0;" edge="1" parent="1" source="_G7vTM6VIxuFmPQsXjSw-1" target="wsUYUHAe7eMuuSLfLsTf-21">
          <mxGeometry relative="1" as="geometry" />
        </mxCell>
        <mxCell id="wsUYUHAe7eMuuSLfLsTf-24" value="Настройка внешних устройств" style="edgeLabel;html=1;align=center;verticalAlign=middle;resizable=0;points=[];" vertex="1" connectable="0" parent="wsUYUHAe7eMuuSLfLsTf-23">
          <mxGeometry x="0.3369" y="-3" relative="1" as="geometry">
            <mxPoint x="22" y="-13" as="offset" />
          </mxGeometry>
        </mxCell>
        <mxCell id="wsUYUHAe7eMuuSLfLsTf-27" style="edgeStyle=orthogonalEdgeStyle;rounded=0;orthogonalLoop=1;jettySize=auto;html=1;exitX=0.75;exitY=0;exitDx=0;exitDy=0;entryX=0;entryY=0.5;entryDx=0;entryDy=0;" edge="1" parent="1" source="_G7vTM6VIxuFmPQsXjSw-1" target="wsUYUHAe7eMuuSLfLsTf-22">
          <mxGeometry relative="1" as="geometry" />
        </mxCell>
        <mxCell id="wsUYUHAe7eMuuSLfLsTf-28" value="Работа с файлами" style="edgeLabel;html=1;align=center;verticalAlign=middle;resizable=0;points=[];" vertex="1" connectable="0" parent="wsUYUHAe7eMuuSLfLsTf-27">
          <mxGeometry x="0.3966" relative="1" as="geometry">
            <mxPoint x="-12" y="-12" as="offset" />
          </mxGeometry>
        </mxCell>
        <mxCell id="_G7vTM6VIxuFmPQsXjSw-1" value="Графический интерфейс" style="rounded=0;whiteSpace=wrap;html=1;" parent="1" vertex="1">
          <mxGeometry x="250" y="220" width="120" height="80" as="geometry" />
        </mxCell>
        <mxCell id="wsUYUHAe7eMuuSLfLsTf-19" style="edgeStyle=orthogonalEdgeStyle;rounded=0;orthogonalLoop=1;jettySize=auto;html=1;exitX=0;exitY=0.75;exitDx=0;exitDy=0;entryX=1;entryY=0.75;entryDx=0;entryDy=0;" edge="1" parent="1" source="_G7vTM6VIxuFmPQsXjSw-2" target="_G7vTM6VIxuFmPQsXjSw-1">
          <mxGeometry relative="1" as="geometry" />
        </mxCell>
        <mxCell id="wsUYUHAe7eMuuSLfLsTf-20" value="Результат ассемблирования" style="edgeLabel;html=1;align=center;verticalAlign=middle;resizable=0;points=[];" vertex="1" connectable="0" parent="wsUYUHAe7eMuuSLfLsTf-19">
          <mxGeometry x="0.6382" y="-2" relative="1" as="geometry">
            <mxPoint x="100" y="-8" as="offset" />
          </mxGeometry>
        </mxCell>
        <mxCell id="_G7vTM6VIxuFmPQsXjSw-2" value="Ассемблер" style="rounded=0;whiteSpace=wrap;html=1;" parent="1" vertex="1">
          <mxGeometry x="650" y="220" width="120" height="80" as="geometry" />
        </mxCell>
        <mxCell id="_G7vTM6VIxuFmPQsXjSw-8" style="edgeStyle=orthogonalEdgeStyle;rounded=0;orthogonalLoop=1;jettySize=auto;html=1;exitX=0.25;exitY=0;exitDx=0;exitDy=0;entryX=0.25;entryY=1;entryDx=0;entryDy=0;" parent="1" source="_G7vTM6VIxuFmPQsXjSw-3" target="_G7vTM6VIxuFmPQsXjSw-1" edge="1">
          <mxGeometry relative="1" as="geometry" />
        </mxCell>
        <mxCell id="_G7vTM6VIxuFmPQsXjSw-9" value="Состояние симулятора" style="edgeLabel;html=1;align=center;verticalAlign=middle;resizable=0;points=[];" parent="_G7vTM6VIxuFmPQsXjSw-8" vertex="1" connectable="0">
          <mxGeometry x="0.0662" y="-1" relative="1" as="geometry">
            <mxPoint x="-71" y="71" as="offset" />
          </mxGeometry>
        </mxCell>
        <mxCell id="Mw8FdT8Y1kT5ITkczhOY-2" style="edgeStyle=orthogonalEdgeStyle;rounded=0;orthogonalLoop=1;jettySize=auto;html=1;exitX=1;exitY=0.25;exitDx=0;exitDy=0;entryX=0.75;entryY=0;entryDx=0;entryDy=0;" edge="1" parent="1" source="Mw8FdT8Y1kT5ITkczhOY-17" target="Mw8FdT8Y1kT5ITkczhOY-1">
          <mxGeometry relative="1" as="geometry" />
        </mxCell>
        <mxCell id="Mw8FdT8Y1kT5ITkczhOY-3" value="Запросы к внешним устройствам" style="edgeLabel;html=1;align=center;verticalAlign=middle;resizable=0;points=[];" vertex="1" connectable="0" parent="Mw8FdT8Y1kT5ITkczhOY-2">
          <mxGeometry x="-0.7094" y="3" relative="1" as="geometry">
            <mxPoint x="47" y="-12" as="offset" />
          </mxGeometry>
        </mxCell>
        <mxCell id="wsUYUHAe7eMuuSLfLsTf-15" style="edgeStyle=orthogonalEdgeStyle;rounded=0;orthogonalLoop=1;jettySize=auto;html=1;exitX=0.75;exitY=1;exitDx=0;exitDy=0;entryX=0;entryY=0.25;entryDx=0;entryDy=0;" edge="1" parent="1" source="_G7vTM6VIxuFmPQsXjSw-3" target="wsUYUHAe7eMuuSLfLsTf-3">
          <mxGeometry relative="1" as="geometry" />
        </mxCell>
        <mxCell id="wsUYUHAe7eMuuSLfLsTf-17" value="Запрос к регистрам" style="edgeLabel;html=1;align=center;verticalAlign=middle;resizable=0;points=[];" vertex="1" connectable="0" parent="wsUYUHAe7eMuuSLfLsTf-15">
          <mxGeometry x="-0.563" y="1" relative="1" as="geometry">
            <mxPoint x="59" y="-27" as="offset" />
          </mxGeometry>
        </mxCell>
        <mxCell id="wsUYUHAe7eMuuSLfLsTf-29" style="edgeStyle=orthogonalEdgeStyle;rounded=0;orthogonalLoop=1;jettySize=auto;html=1;exitX=1;exitY=0.25;exitDx=0;exitDy=0;entryX=0.75;entryY=0;entryDx=0;entryDy=0;" edge="1" parent="1" source="_G7vTM6VIxuFmPQsXjSw-3" target="Mw8FdT8Y1kT5ITkczhOY-17">
          <mxGeometry relative="1" as="geometry" />
        </mxCell>
        <mxCell id="wsUYUHAe7eMuuSLfLsTf-31" value="Запрос данных" style="edgeLabel;html=1;align=center;verticalAlign=middle;resizable=0;points=[];" vertex="1" connectable="0" parent="wsUYUHAe7eMuuSLfLsTf-29">
          <mxGeometry x="-0.8814" y="3" relative="1" as="geometry">
            <mxPoint x="11" y="-7" as="offset" />
          </mxGeometry>
        </mxCell>
        <mxCell id="_G7vTM6VIxuFmPQsXjSw-3" value="Исполнитель" style="rounded=0;whiteSpace=wrap;html=1;" parent="1" vertex="1">
          <mxGeometry x="250" y="470" width="120" height="60" as="geometry" />
        </mxCell>
        <mxCell id="_G7vTM6VIxuFmPQsXjSw-15" value="Пользователь" style="shape=umlActor;verticalLabelPosition=bottom;verticalAlign=top;html=1;outlineConnect=0;" parent="1" vertex="1">
          <mxGeometry x="40" y="240" width="30" height="60" as="geometry" />
        </mxCell>
        <mxCell id="_G7vTM6VIxuFmPQsXjSw-30" value="" style="endArrow=classic;html=1;rounded=0;entryX=0;entryY=0.25;entryDx=0;entryDy=0;" parent="1" target="_G7vTM6VIxuFmPQsXjSw-1" edge="1">
          <mxGeometry width="50" height="50" relative="1" as="geometry">
            <mxPoint x="80" y="240" as="sourcePoint" />
            <mxPoint x="310" y="250" as="targetPoint" />
          </mxGeometry>
        </mxCell>
        <mxCell id="_G7vTM6VIxuFmPQsXjSw-31" value="Ввод данных, запросы" style="edgeLabel;html=1;align=center;verticalAlign=middle;resizable=0;points=[];" parent="_G7vTM6VIxuFmPQsXjSw-30" vertex="1" connectable="0">
          <mxGeometry x="-0.7151" y="-1" relative="1" as="geometry">
            <mxPoint x="56" y="-13" as="offset" />
          </mxGeometry>
        </mxCell>
        <mxCell id="Mw8FdT8Y1kT5ITkczhOY-37" style="edgeStyle=orthogonalEdgeStyle;rounded=0;orthogonalLoop=1;jettySize=auto;html=1;exitX=0.5;exitY=0;exitDx=0;exitDy=0;entryX=0;entryY=0.5;entryDx=0;entryDy=0;" edge="1" parent="1" source="_G7vTM6VIxuFmPQsXjSw-37" target="Mw8FdT8Y1kT5ITkczhOY-1">
          <mxGeometry relative="1" as="geometry" />
        </mxCell>
        <mxCell id="Mw8FdT8Y1kT5ITkczhOY-40" value="Данные" style="edgeLabel;html=1;align=center;verticalAlign=middle;resizable=0;points=[];" vertex="1" connectable="0" parent="Mw8FdT8Y1kT5ITkczhOY-37">
          <mxGeometry x="-0.0687" y="-2" relative="1" as="geometry">
            <mxPoint x="18" y="-29" as="offset" />
          </mxGeometry>
        </mxCell>
        <mxCell id="_G7vTM6VIxuFmPQsXjSw-37" value="Внешнее устройство 1" style="rounded=0;whiteSpace=wrap;html=1;" parent="1" vertex="1">
          <mxGeometry x="940" y="800" width="140" height="40" as="geometry" />
        </mxCell>
        <mxCell id="Mw8FdT8Y1kT5ITkczhOY-38" style="edgeStyle=orthogonalEdgeStyle;rounded=0;orthogonalLoop=1;jettySize=auto;html=1;exitX=0.5;exitY=0;exitDx=0;exitDy=0;entryX=1;entryY=0.5;entryDx=0;entryDy=0;" edge="1" parent="1" source="_G7vTM6VIxuFmPQsXjSw-38" target="Mw8FdT8Y1kT5ITkczhOY-1">
          <mxGeometry relative="1" as="geometry" />
        </mxCell>
        <mxCell id="Mw8FdT8Y1kT5ITkczhOY-39" value="Данные" style="edgeLabel;html=1;align=center;verticalAlign=middle;resizable=0;points=[];" vertex="1" connectable="0" parent="Mw8FdT8Y1kT5ITkczhOY-38">
          <mxGeometry x="0.0615" y="1" relative="1" as="geometry">
            <mxPoint x="-19" y="-18" as="offset" />
          </mxGeometry>
        </mxCell>
        <mxCell id="Mw8FdT8Y1kT5ITkczhOY-43" style="edgeStyle=orthogonalEdgeStyle;rounded=0;orthogonalLoop=1;jettySize=auto;html=1;exitX=0.25;exitY=0;exitDx=0;exitDy=0;entryX=1;entryY=0.75;entryDx=0;entryDy=0;" edge="1" parent="1" source="_G7vTM6VIxuFmPQsXjSw-38" target="Mw8FdT8Y1kT5ITkczhOY-1">
          <mxGeometry relative="1" as="geometry" />
        </mxCell>
        <mxCell id="Mw8FdT8Y1kT5ITkczhOY-44" value="Запрос прерывания" style="edgeLabel;html=1;align=center;verticalAlign=middle;resizable=0;points=[];" vertex="1" connectable="0" parent="Mw8FdT8Y1kT5ITkczhOY-43">
          <mxGeometry x="-0.7154" y="-1" relative="1" as="geometry">
            <mxPoint x="-56" y="-13" as="offset" />
          </mxGeometry>
        </mxCell>
        <mxCell id="_G7vTM6VIxuFmPQsXjSw-38" value="Внешнее устройство N" style="rounded=0;whiteSpace=wrap;html=1;" parent="1" vertex="1">
          <mxGeometry x="1200" y="800" width="140" height="40" as="geometry" />
        </mxCell>
        <mxCell id="Mw8FdT8Y1kT5ITkczhOY-29" style="edgeStyle=orthogonalEdgeStyle;rounded=0;orthogonalLoop=1;jettySize=auto;html=1;exitX=0.5;exitY=0;exitDx=0;exitDy=0;entryX=1;entryY=0.5;entryDx=0;entryDy=0;" edge="1" parent="1" source="Mw8FdT8Y1kT5ITkczhOY-1" target="Mw8FdT8Y1kT5ITkczhOY-17">
          <mxGeometry relative="1" as="geometry" />
        </mxCell>
        <mxCell id="Mw8FdT8Y1kT5ITkczhOY-30" value="Данные" style="edgeLabel;html=1;align=center;verticalAlign=middle;resizable=0;points=[];" vertex="1" connectable="0" parent="Mw8FdT8Y1kT5ITkczhOY-29">
          <mxGeometry x="-0.7073" y="1" relative="1" as="geometry">
            <mxPoint x="-19" y="-51" as="offset" />
          </mxGeometry>
        </mxCell>
        <mxCell id="Mw8FdT8Y1kT5ITkczhOY-31" style="edgeStyle=orthogonalEdgeStyle;rounded=0;orthogonalLoop=1;jettySize=auto;html=1;exitX=0.25;exitY=0;exitDx=0;exitDy=0;entryX=1;entryY=0.75;entryDx=0;entryDy=0;" edge="1" parent="1" source="Mw8FdT8Y1kT5ITkczhOY-1" target="Mw8FdT8Y1kT5ITkczhOY-17">
          <mxGeometry relative="1" as="geometry" />
        </mxCell>
        <mxCell id="Mw8FdT8Y1kT5ITkczhOY-32" value="Запросы прерываний" style="edgeLabel;html=1;align=center;verticalAlign=middle;resizable=0;points=[];" vertex="1" connectable="0" parent="Mw8FdT8Y1kT5ITkczhOY-31">
          <mxGeometry x="0.0439" y="-2" relative="1" as="geometry">
            <mxPoint x="-14" y="-6" as="offset" />
          </mxGeometry>
        </mxCell>
        <mxCell id="Mw8FdT8Y1kT5ITkczhOY-33" style="edgeStyle=orthogonalEdgeStyle;rounded=0;orthogonalLoop=1;jettySize=auto;html=1;exitX=0;exitY=0.25;exitDx=0;exitDy=0;entryX=0.25;entryY=0;entryDx=0;entryDy=0;" edge="1" parent="1" source="Mw8FdT8Y1kT5ITkczhOY-1" target="_G7vTM6VIxuFmPQsXjSw-37">
          <mxGeometry relative="1" as="geometry" />
        </mxCell>
        <mxCell id="Mw8FdT8Y1kT5ITkczhOY-36" value="Запрос в внешнему устройству" style="edgeLabel;html=1;align=center;verticalAlign=middle;resizable=0;points=[];" vertex="1" connectable="0" parent="Mw8FdT8Y1kT5ITkczhOY-33">
          <mxGeometry x="-0.303" y="2" relative="1" as="geometry">
            <mxPoint x="-8" y="-11" as="offset" />
          </mxGeometry>
        </mxCell>
        <mxCell id="Mw8FdT8Y1kT5ITkczhOY-1" value="Модуль внешних устройств" style="rounded=0;whiteSpace=wrap;html=1;" vertex="1" parent="1">
          <mxGeometry x="1080" y="670" width="120" height="60" as="geometry" />
        </mxCell>
        <mxCell id="Mw8FdT8Y1kT5ITkczhOY-24" style="edgeStyle=orthogonalEdgeStyle;rounded=0;orthogonalLoop=1;jettySize=auto;html=1;exitX=0;exitY=0.25;exitDx=0;exitDy=0;entryX=0.25;entryY=0;entryDx=0;entryDy=0;" edge="1" parent="1" source="Mw8FdT8Y1kT5ITkczhOY-17" target="Mw8FdT8Y1kT5ITkczhOY-19">
          <mxGeometry relative="1" as="geometry" />
        </mxCell>
        <mxCell id="Mw8FdT8Y1kT5ITkczhOY-25" value="Запрос данных" style="edgeLabel;html=1;align=center;verticalAlign=middle;resizable=0;points=[];" vertex="1" connectable="0" parent="Mw8FdT8Y1kT5ITkczhOY-24">
          <mxGeometry x="-0.389" y="-3" relative="1" as="geometry">
            <mxPoint x="12" y="-12" as="offset" />
          </mxGeometry>
        </mxCell>
        <mxCell id="wsUYUHAe7eMuuSLfLsTf-30" style="edgeStyle=orthogonalEdgeStyle;rounded=0;orthogonalLoop=1;jettySize=auto;html=1;exitX=0.25;exitY=0;exitDx=0;exitDy=0;entryX=1;entryY=0.75;entryDx=0;entryDy=0;" edge="1" parent="1" source="Mw8FdT8Y1kT5ITkczhOY-17" target="_G7vTM6VIxuFmPQsXjSw-3">
          <mxGeometry relative="1" as="geometry" />
        </mxCell>
        <mxCell id="wsUYUHAe7eMuuSLfLsTf-32" value="Данные" style="edgeLabel;html=1;align=center;verticalAlign=middle;resizable=0;points=[];" vertex="1" connectable="0" parent="wsUYUHAe7eMuuSLfLsTf-30">
          <mxGeometry x="-0.6829" y="1" relative="1" as="geometry">
            <mxPoint x="23" y="-13" as="offset" />
          </mxGeometry>
        </mxCell>
        <mxCell id="Mw8FdT8Y1kT5ITkczhOY-17" value="Общая шина" style="rounded=0;whiteSpace=wrap;html=1;" vertex="1" parent="1">
          <mxGeometry x="850" y="560" width="120" height="60" as="geometry" />
        </mxCell>
        <mxCell id="Mw8FdT8Y1kT5ITkczhOY-26" style="edgeStyle=orthogonalEdgeStyle;rounded=0;orthogonalLoop=1;jettySize=auto;html=1;exitX=0.75;exitY=0;exitDx=0;exitDy=0;entryX=0;entryY=0.75;entryDx=0;entryDy=0;" edge="1" parent="1" source="Mw8FdT8Y1kT5ITkczhOY-19" target="Mw8FdT8Y1kT5ITkczhOY-17">
          <mxGeometry relative="1" as="geometry" />
        </mxCell>
        <mxCell id="Mw8FdT8Y1kT5ITkczhOY-27" value="Данные" style="edgeLabel;html=1;align=center;verticalAlign=middle;resizable=0;points=[];" vertex="1" connectable="0" parent="Mw8FdT8Y1kT5ITkczhOY-26">
          <mxGeometry x="-0.6798" y="-1" relative="1" as="geometry">
            <mxPoint x="9" y="-72" as="offset" />
          </mxGeometry>
        </mxCell>
        <mxCell id="Mw8FdT8Y1kT5ITkczhOY-19" value="Память" style="rounded=0;whiteSpace=wrap;html=1;" vertex="1" parent="1">
          <mxGeometry x="720" y="680" width="120" height="60" as="geometry" />
        </mxCell>
        <mxCell id="Mw8FdT8Y1kT5ITkczhOY-34" style="edgeStyle=orthogonalEdgeStyle;rounded=0;orthogonalLoop=1;jettySize=auto;html=1;exitX=1;exitY=0.25;exitDx=0;exitDy=0;entryX=0.75;entryY=0;entryDx=0;entryDy=0;" edge="1" parent="1" source="Mw8FdT8Y1kT5ITkczhOY-1" target="_G7vTM6VIxuFmPQsXjSw-38">
          <mxGeometry relative="1" as="geometry" />
        </mxCell>
        <mxCell id="Mw8FdT8Y1kT5ITkczhOY-35" value="Запрос в внешнему устройству" style="edgeLabel;html=1;align=center;verticalAlign=middle;resizable=0;points=[];" vertex="1" connectable="0" parent="Mw8FdT8Y1kT5ITkczhOY-34">
          <mxGeometry x="-0.821" y="1" relative="1" as="geometry">
            <mxPoint x="63" y="-8" as="offset" />
          </mxGeometry>
        </mxCell>
        <mxCell id="Mw8FdT8Y1kT5ITkczhOY-41" style="edgeStyle=orthogonalEdgeStyle;rounded=0;orthogonalLoop=1;jettySize=auto;html=1;exitX=0.75;exitY=0;exitDx=0;exitDy=0;entryX=0;entryY=0.75;entryDx=0;entryDy=0;" edge="1" parent="1" source="_G7vTM6VIxuFmPQsXjSw-37" target="Mw8FdT8Y1kT5ITkczhOY-1">
          <mxGeometry relative="1" as="geometry" />
        </mxCell>
        <mxCell id="Mw8FdT8Y1kT5ITkczhOY-42" value="Запрос прерывания" style="edgeLabel;html=1;align=center;verticalAlign=middle;resizable=0;points=[];" vertex="1" connectable="0" parent="Mw8FdT8Y1kT5ITkczhOY-41">
          <mxGeometry x="-0.6789" relative="1" as="geometry">
            <mxPoint x="55" y="9" as="offset" />
          </mxGeometry>
        </mxCell>
        <mxCell id="wsUYUHAe7eMuuSLfLsTf-7" style="edgeStyle=orthogonalEdgeStyle;rounded=0;orthogonalLoop=1;jettySize=auto;html=1;exitX=0.75;exitY=1;exitDx=0;exitDy=0;entryX=0;entryY=0.25;entryDx=0;entryDy=0;" edge="1" parent="1" source="wsUYUHAe7eMuuSLfLsTf-3" target="wsUYUHAe7eMuuSLfLsTf-5">
          <mxGeometry relative="1" as="geometry" />
        </mxCell>
        <mxCell id="wsUYUHAe7eMuuSLfLsTf-13" value="Запрос к РОНам" style="edgeLabel;html=1;align=center;verticalAlign=middle;resizable=0;points=[];" vertex="1" connectable="0" parent="wsUYUHAe7eMuuSLfLsTf-7">
          <mxGeometry x="-0.028" relative="1" as="geometry">
            <mxPoint x="17" y="-20" as="offset" />
          </mxGeometry>
        </mxCell>
        <mxCell id="wsUYUHAe7eMuuSLfLsTf-9" style="edgeStyle=orthogonalEdgeStyle;rounded=0;orthogonalLoop=1;jettySize=auto;html=1;exitX=0.75;exitY=0;exitDx=0;exitDy=0;entryX=0;entryY=0.75;entryDx=0;entryDy=0;" edge="1" parent="1" source="wsUYUHAe7eMuuSLfLsTf-3" target="wsUYUHAe7eMuuSLfLsTf-4">
          <mxGeometry relative="1" as="geometry">
            <mxPoint x="490" y="660" as="targetPoint" />
          </mxGeometry>
        </mxCell>
        <mxCell id="wsUYUHAe7eMuuSLfLsTf-11" value="Запрос к PSW" style="edgeLabel;html=1;align=center;verticalAlign=middle;resizable=0;points=[];" vertex="1" connectable="0" parent="wsUYUHAe7eMuuSLfLsTf-9">
          <mxGeometry x="0.0163" y="-1" relative="1" as="geometry">
            <mxPoint x="29" y="9" as="offset" />
          </mxGeometry>
        </mxCell>
        <mxCell id="wsUYUHAe7eMuuSLfLsTf-16" style="edgeStyle=orthogonalEdgeStyle;rounded=0;orthogonalLoop=1;jettySize=auto;html=1;exitX=0;exitY=0.75;exitDx=0;exitDy=0;entryX=0.25;entryY=1;entryDx=0;entryDy=0;" edge="1" parent="1" source="wsUYUHAe7eMuuSLfLsTf-3" target="_G7vTM6VIxuFmPQsXjSw-3">
          <mxGeometry relative="1" as="geometry" />
        </mxCell>
        <mxCell id="wsUYUHAe7eMuuSLfLsTf-18" value="Данные" style="edgeLabel;html=1;align=center;verticalAlign=middle;resizable=0;points=[];" vertex="1" connectable="0" parent="wsUYUHAe7eMuuSLfLsTf-16">
          <mxGeometry x="0.3556" y="1" relative="1" as="geometry">
            <mxPoint x="31" y="112" as="offset" />
          </mxGeometry>
        </mxCell>
        <mxCell id="wsUYUHAe7eMuuSLfLsTf-3" value="Регистры" style="rounded=0;whiteSpace=wrap;html=1;" vertex="1" parent="1">
          <mxGeometry x="360" y="710" width="120" height="60" as="geometry" />
        </mxCell>
        <mxCell id="wsUYUHAe7eMuuSLfLsTf-10" style="edgeStyle=orthogonalEdgeStyle;rounded=0;orthogonalLoop=1;jettySize=auto;html=1;exitX=0;exitY=0.25;exitDx=0;exitDy=0;entryX=0.25;entryY=0;entryDx=0;entryDy=0;" edge="1" parent="1" source="wsUYUHAe7eMuuSLfLsTf-4" target="wsUYUHAe7eMuuSLfLsTf-3">
          <mxGeometry relative="1" as="geometry" />
        </mxCell>
        <mxCell id="wsUYUHAe7eMuuSLfLsTf-12" value="Флаги состояния, приоритет" style="edgeLabel;html=1;align=center;verticalAlign=middle;resizable=0;points=[];" vertex="1" connectable="0" parent="wsUYUHAe7eMuuSLfLsTf-10">
          <mxGeometry x="-0.3601" y="-1" relative="1" as="geometry">
            <mxPoint x="-10" y="-9" as="offset" />
          </mxGeometry>
        </mxCell>
        <mxCell id="wsUYUHAe7eMuuSLfLsTf-4" value="PSW" style="rounded=0;whiteSpace=wrap;html=1;" vertex="1" parent="1">
          <mxGeometry x="540" y="630" width="120" height="40" as="geometry" />
        </mxCell>
        <mxCell id="wsUYUHAe7eMuuSLfLsTf-8" style="edgeStyle=orthogonalEdgeStyle;rounded=0;orthogonalLoop=1;jettySize=auto;html=1;exitX=0;exitY=0.75;exitDx=0;exitDy=0;entryX=0.25;entryY=1;entryDx=0;entryDy=0;" edge="1" parent="1" source="wsUYUHAe7eMuuSLfLsTf-5" target="wsUYUHAe7eMuuSLfLsTf-3">
          <mxGeometry relative="1" as="geometry" />
        </mxCell>
        <mxCell id="wsUYUHAe7eMuuSLfLsTf-14" value="Данные" style="edgeLabel;html=1;align=center;verticalAlign=middle;resizable=0;points=[];" vertex="1" connectable="0" parent="wsUYUHAe7eMuuSLfLsTf-8">
          <mxGeometry x="-0.1576" y="-1" relative="1" as="geometry">
            <mxPoint x="-43" y="-9" as="offset" />
          </mxGeometry>
        </mxCell>
        <mxCell id="wsUYUHAe7eMuuSLfLsTf-5" value="РОНы" style="rounded=0;whiteSpace=wrap;html=1;" vertex="1" parent="1">
          <mxGeometry x="540" y="790" width="120" height="40" as="geometry" />
        </mxCell>
        <mxCell id="wsUYUHAe7eMuuSLfLsTf-25" style="edgeStyle=orthogonalEdgeStyle;rounded=0;orthogonalLoop=1;jettySize=auto;html=1;exitX=0;exitY=0.5;exitDx=0;exitDy=0;entryX=0.5;entryY=0;entryDx=0;entryDy=0;" edge="1" parent="1" source="wsUYUHAe7eMuuSLfLsTf-21" target="_G7vTM6VIxuFmPQsXjSw-1">
          <mxGeometry relative="1" as="geometry" />
        </mxCell>
        <mxCell id="wsUYUHAe7eMuuSLfLsTf-26" value="Данные проекта" style="edgeLabel;html=1;align=center;verticalAlign=middle;resizable=0;points=[];" vertex="1" connectable="0" parent="wsUYUHAe7eMuuSLfLsTf-25">
          <mxGeometry x="-0.4247" relative="1" as="geometry">
            <mxPoint x="23" y="-10" as="offset" />
          </mxGeometry>
        </mxCell>
        <mxCell id="wsUYUHAe7eMuuSLfLsTf-21" value="Менеджер проекта" style="rounded=0;whiteSpace=wrap;html=1;" vertex="1" parent="1">
          <mxGeometry x="440" y="20" width="120" height="80" as="geometry" />
        </mxCell>
        <mxCell id="wsUYUHAe7eMuuSLfLsTf-22" value="Менеджер файлов" style="rounded=0;whiteSpace=wrap;html=1;" vertex="1" parent="1">
          <mxGeometry x="440" y="120" width="120" height="80" as="geometry" />
        </mxCell>
      </root>
    </mxGraphModel>
  </diagram>
</mxfile>
